# xmcd
#
# Track frame offsets: 
#        150
#        13746
#        33467
#        47683
#        59005
#        79171
#        91350
#        112401
#        126116
#        145195
#        160885
#        172226
#        189466
#
# Disc length: 2821 seconds
#
# Revision: 0
# Processed by: cddbd v1.5.2PL0 Copyright (c) Steve Scherf et al.
# Submitted via: ExactAudioCopy v0.99pb5
#
DISCID=bc0b030d
DTITLE=Micky and The Motorcars - Live at Billy Bob's Texas [CD1]
DYEAR=2009
DGENRE=Country
TTITLE0=Naive
TTITLE1=Carolina Morning
TTITLE2=Grow Old
TTITLE3=Guts
TTITLE4=Long Enough to Leave
TTITLE5=Seashell
TTITLE6=July, You're a Woman
TTITLE7=Lawyers, Guns, and Money
TTITLE8=Long and Lonely Highway
TTITLE9=The Band Song
TTITLE10=Ain't in It for the Money
TTITLE11=Twighlight
TTITLE12=Love is Where I Left It
EXTD=
EXTT0=
EXTT1=
EXTT2=
EXTT3=
EXTT4=
EXTT5=
EXTT6=
EXTT7=
EXTT8=
EXTT9=
EXTT10=
EXTT11=
EXTT12=
PLAYORDER=
